<?xml version="1.0" encoding="utf-8"?>
<!-- Generator: Adobe Illustrator 21.0.0, SVG Export Plug-In . SVG Version: 6.00 Build 0)  -->
<svg version="1.1" id="Layer_1" xmlns="http://www.w3.org/2000/svg" xmlns:xlink="http://www.w3.org/1999/xlink" x="0px" y="0px"
	 viewBox="0 0 723.6 230.8" style="enable-background:new 0 0 723.6 230.8;" xml:space="preserve">
<style type="text/css">
	.st0{fill:url(#SVGID_1_);}
	.st1{fill:#FFFFFF;}
</style>
<g>
	<g>
		<linearGradient id="SVGID_1_" gradientUnits="userSpaceOnUse" x1="161.5745" y1="23.9114" x2="17.0273" y2="198.9967">
			<stop  offset="0" style="stop-color:#ED1A6B"/>
			<stop  offset="1" style="stop-color:#2E0A54"/>
		</linearGradient>
		<path class="st0" d="M153.5,25.4H27c-5.4,0-9.8,4.4-9.8,9.8v152.3c0,3.8,5.2,4.8,6.6,1.3l31.3-77.3c0.6-1.4,2.6-1.4,3.2,0
			L78,159.8c0.5,1.1,0.5,2.4,0,3.5l-16,39.5c-0.5,1.2,0.4,2.6,1.7,2.6h52.8c1.3,0,2.2-1.3,1.7-2.6L69.9,83.3
			c-0.7-1.8,0.6-3.7,2.5-3.7h38.1c1.1,0,2.1,0.7,2.5,1.7c2,5,10.3,25.4,43.6,107.7c1.4,3.5,6.7,2.5,6.7-1.3l0-152.5
			C163.3,29.8,158.9,25.4,153.5,25.4z"/>
	</g>
	<g>
		<path class="st1" d="M252.6,170.4H226l-5.8,18.4H204l26.3-75.7h18.6l26.3,75.7h-16.8L252.6,170.4z M229.4,158.6h19.8l-9.7-31h-0.4
			L229.4,158.6z"/>
		<path class="st1" d="M298.8,188.8h-15.8v-75.7h31c17.4,0,27.4,9.2,27.4,24.1c0,9.7-5,18.1-13.7,21.5l16,30.1h-17.9l-14.1-27.7
			h-12.7V188.8z M298.8,149.6h13.6c8,0,12.6-4.6,12.6-12.1c0-7.3-4.9-12.1-12.8-12.1h-13.5V149.6z"/>
		<path class="st1" d="M396.2,188.8l-28.3-75.7h7.6l24.1,66.8h0.3l24.2-66.8h7.6l-28.3,75.7H396.2z"/>
		<path class="st1" d="M439.9,188.8v-75.7h7.1v75.7H439.9z"/>
		<path class="st1" d="M464.7,168.2c0.8,9.1,9.3,15.3,21.2,15.3c11.3,0,19.5-6.2,19.5-14.7c0-7.1-4.9-11.3-16.1-14.1l-9.4-2.4
			c-14-3.6-20.3-9.5-20.3-19.5c0-12.2,11-20.9,25.9-20.9c14.7,0,25.6,8.7,26,20.7h-7.2c-0.7-8.6-8.2-14.2-19-14.2
			c-10.5,0-18.3,5.8-18.3,14.2c0,6.5,4.7,10.3,15.8,13.2l8.2,2.1c15.2,3.8,21.6,9.7,21.6,20.2c0,13.3-10.7,22-27.4,22
			c-15.8,0-27-8.8-27.8-21.8H464.7z"/>
		<path class="st1" d="M530.4,161.9c0,12.7,8.3,21.4,22.1,21.4c13.9,0,22.1-8.7,22.1-21.4v-48.8h7.2v49.3
			c0,16.3-11.1,27.7-29.3,27.7c-18.2,0-29.3-11.3-29.3-27.7v-49.3h7.1V161.9z"/>
		<path class="st1" d="M637,165.6h-31.8l-8.4,23.2h-7.6l28.3-75.7h7.1l28.3,75.7h-7.6L637,165.6z M607.4,159.4h27.5L621.3,122H621
			L607.4,159.4z"/>
		<path class="st1" d="M706.4,188.8h-45.1v-75.7h7.1v69.2h37.9V188.8z"/>
	</g>
</g>
</svg>
